<mxfile host="app.diagrams.net" agent="Mozilla/5.0 (Windows NT 10.0; Win64; x64) AppleWebKit/537.36 (KHTML, like Gecko) Chrome/139.0.0.0 Safari/537.36 Edg/139.0.0.0" version="28.1.1">
  <diagram name="Page-1" id="vyqmrnWI04aVe6RUJope">
    <mxGraphModel dx="1058" dy="641" grid="1" gridSize="10" guides="1" tooltips="1" connect="1" arrows="1" fold="1" page="1" pageScale="1" pageWidth="827" pageHeight="1169" math="0" shadow="0">
      <root>
        <mxCell id="0" />
        <mxCell id="1" parent="0" />
        <mxCell id="N7vqplmoZHJDVy9M2ljd-5" value="" style="edgeStyle=orthogonalEdgeStyle;rounded=0;orthogonalLoop=1;jettySize=auto;html=1;entryX=0.5;entryY=0;entryDx=0;entryDy=0;" edge="1" parent="1" source="N7vqplmoZHJDVy9M2ljd-1" target="N7vqplmoZHJDVy9M2ljd-31">
          <mxGeometry relative="1" as="geometry">
            <mxPoint x="273.51724137931046" y="290.00541395968685" as="targetPoint" />
          </mxGeometry>
        </mxCell>
        <mxCell id="N7vqplmoZHJDVy9M2ljd-14" value="switch" style="edgeLabel;html=1;align=center;verticalAlign=middle;resizable=0;points=[];" vertex="1" connectable="0" parent="N7vqplmoZHJDVy9M2ljd-5">
          <mxGeometry x="0.0555" y="-2" relative="1" as="geometry">
            <mxPoint as="offset" />
          </mxGeometry>
        </mxCell>
        <mxCell id="N7vqplmoZHJDVy9M2ljd-1" value="&lt;span style=&quot;font-size: 12px;&quot;&gt;immu_stg_vaccine_varchar&lt;/span&gt;" style="rounded=1;whiteSpace=wrap;html=1;fillColor=#d5e8d4;strokeColor=#82b366;" vertex="1" parent="1">
          <mxGeometry x="280" y="200" width="160" height="40" as="geometry" />
        </mxCell>
        <mxCell id="N7vqplmoZHJDVy9M2ljd-22" style="edgeStyle=orthogonalEdgeStyle;rounded=0;orthogonalLoop=1;jettySize=auto;html=1;entryX=0.5;entryY=0;entryDx=0;entryDy=0;" edge="1" parent="1" source="N7vqplmoZHJDVy9M2ljd-6" target="N7vqplmoZHJDVy9M2ljd-31">
          <mxGeometry relative="1" as="geometry">
            <mxPoint x="273.51724137931046" y="290.00541395968685" as="targetPoint" />
          </mxGeometry>
        </mxCell>
        <mxCell id="N7vqplmoZHJDVy9M2ljd-6" value="&lt;span style=&quot;font-size: 12px;&quot;&gt;immu_stg_vaccine&lt;/span&gt;" style="rounded=1;whiteSpace=wrap;html=1;align=center;fillColor=#f5f5f5;fontColor=#333333;strokeColor=#666666;" vertex="1" parent="1">
          <mxGeometry x="100" y="200" width="160" height="40" as="geometry" />
        </mxCell>
        <mxCell id="N7vqplmoZHJDVy9M2ljd-13" value="" style="edgeStyle=orthogonalEdgeStyle;rounded=0;orthogonalLoop=1;jettySize=auto;html=1;entryX=0.5;entryY=0;entryDx=0;entryDy=0;" edge="1" parent="1" source="N7vqplmoZHJDVy9M2ljd-10" target="N7vqplmoZHJDVy9M2ljd-33">
          <mxGeometry relative="1" as="geometry">
            <mxPoint x="273.51724137931046" y="450.0046159047174" as="targetPoint" />
          </mxGeometry>
        </mxCell>
        <mxCell id="N7vqplmoZHJDVy9M2ljd-10" value="map_immu_vaccine_varchar" style="whiteSpace=wrap;html=1;rounded=1;fillColor=#d5e8d4;strokeColor=#82b366;" vertex="1" parent="1">
          <mxGeometry x="188.5" y="380" width="170" height="46.25" as="geometry" />
        </mxCell>
        <mxCell id="N7vqplmoZHJDVy9M2ljd-25" style="edgeStyle=orthogonalEdgeStyle;rounded=0;orthogonalLoop=1;jettySize=auto;html=1;entryX=0.5;entryY=0;entryDx=0;entryDy=0;" edge="1" parent="1" source="N7vqplmoZHJDVy9M2ljd-17" target="N7vqplmoZHJDVy9M2ljd-33">
          <mxGeometry relative="1" as="geometry">
            <mxPoint x="273.5050000000001" y="450" as="targetPoint" />
            <Array as="points">
              <mxPoint x="540" y="450" />
              <mxPoint x="274" y="450" />
            </Array>
          </mxGeometry>
        </mxCell>
        <mxCell id="N7vqplmoZHJDVy9M2ljd-26" value="left join for clob columns" style="edgeLabel;html=1;align=center;verticalAlign=middle;resizable=0;points=[];" vertex="1" connectable="0" parent="N7vqplmoZHJDVy9M2ljd-25">
          <mxGeometry x="0.35" y="-1" relative="1" as="geometry">
            <mxPoint as="offset" />
          </mxGeometry>
        </mxCell>
        <mxCell id="N7vqplmoZHJDVy9M2ljd-17" value="&lt;span style=&quot;text-align: left;&quot;&gt;immu_stg_vaccine_clob&lt;/span&gt;" style="rounded=1;whiteSpace=wrap;html=1;fillColor=#d5e8d4;strokeColor=#82b366;" vertex="1" parent="1">
          <mxGeometry x="460" y="200" width="160" height="40" as="geometry" />
        </mxCell>
        <mxCell id="N7vqplmoZHJDVy9M2ljd-28" style="edgeStyle=orthogonalEdgeStyle;rounded=0;orthogonalLoop=1;jettySize=auto;html=1;entryX=0.5;entryY=0;entryDx=0;entryDy=0;" edge="1" parent="1" source="N7vqplmoZHJDVy9M2ljd-27" target="N7vqplmoZHJDVy9M2ljd-1">
          <mxGeometry relative="1" as="geometry" />
        </mxCell>
        <mxCell id="N7vqplmoZHJDVy9M2ljd-29" style="edgeStyle=orthogonalEdgeStyle;rounded=0;orthogonalLoop=1;jettySize=auto;html=1;exitX=0.5;exitY=1;exitDx=0;exitDy=0;entryX=0.5;entryY=0;entryDx=0;entryDy=0;" edge="1" parent="1" source="N7vqplmoZHJDVy9M2ljd-27" target="N7vqplmoZHJDVy9M2ljd-17">
          <mxGeometry relative="1" as="geometry" />
        </mxCell>
        <mxCell id="N7vqplmoZHJDVy9M2ljd-36" value="length&amp;gt;4000" style="edgeLabel;html=1;align=center;verticalAlign=middle;resizable=0;points=[];" vertex="1" connectable="0" parent="N7vqplmoZHJDVy9M2ljd-29">
          <mxGeometry x="-0.0275" y="-1" relative="1" as="geometry">
            <mxPoint as="offset" />
          </mxGeometry>
        </mxCell>
        <mxCell id="N7vqplmoZHJDVy9M2ljd-27" value="da_response_stg" style="rounded=1;whiteSpace=wrap;html=1;fillColor=#dae8fc;strokeColor=#6c8ebf;" vertex="1" parent="1">
          <mxGeometry x="370" y="100" width="150" height="40" as="geometry" />
        </mxCell>
        <mxCell id="N7vqplmoZHJDVy9M2ljd-34" style="edgeStyle=orthogonalEdgeStyle;rounded=0;orthogonalLoop=1;jettySize=auto;html=1;exitX=0.5;exitY=1;exitDx=0;exitDy=0;entryX=0.5;entryY=0;entryDx=0;entryDy=0;" edge="1" parent="1" source="N7vqplmoZHJDVy9M2ljd-31" target="N7vqplmoZHJDVy9M2ljd-10">
          <mxGeometry relative="1" as="geometry" />
        </mxCell>
        <mxCell id="N7vqplmoZHJDVy9M2ljd-31" value="immu_stg_vaccine_view" style="ellipse;whiteSpace=wrap;html=1;fillColor=#ffe6cc;strokeColor=#d79b00;" vertex="1" parent="1">
          <mxGeometry x="197" y="300" width="153" height="47.5" as="geometry" />
        </mxCell>
        <mxCell id="N7vqplmoZHJDVy9M2ljd-33" value="map_immu_vaccine" style="ellipse;whiteSpace=wrap;html=1;fillColor=#ffe6cc;strokeColor=#d79b00;" vertex="1" parent="1">
          <mxGeometry x="208.5" y="470" width="130" height="50" as="geometry" />
        </mxCell>
        <mxCell id="N7vqplmoZHJDVy9M2ljd-39" style="edgeStyle=orthogonalEdgeStyle;rounded=0;orthogonalLoop=1;jettySize=auto;html=1;exitX=0.5;exitY=1;exitDx=0;exitDy=0;exitPerimeter=0;entryX=0.5;entryY=0;entryDx=0;entryDy=0;" edge="1" parent="1" source="N7vqplmoZHJDVy9M2ljd-37" target="N7vqplmoZHJDVy9M2ljd-27">
          <mxGeometry relative="1" as="geometry" />
        </mxCell>
        <mxCell id="N7vqplmoZHJDVy9M2ljd-37" value="API Json" style="shape=note;whiteSpace=wrap;html=1;backgroundOutline=1;darkOpacity=0.05;size=10;" vertex="1" parent="1">
          <mxGeometry x="425" y="20" width="45" height="50" as="geometry" />
        </mxCell>
      </root>
    </mxGraphModel>
  </diagram>
</mxfile>
